<svg width="128" height="116" viewBox="0 0 128 116" fill="none" xmlns="http://www.w3.org/2000/svg">
<path d="M98.6784 85.9045C104.892 85.9045 109.947 80.8495 109.947 74.6362C109.947 68.4227 104.892 63.3677 98.6784 63.3677C92.4649 63.3677 87.4102 68.4227 87.4102 74.6362C87.4102 80.8495 92.4649 85.9045 98.6784 85.9045ZM98.6784 67.1175C102.824 67.1175 106.197 70.4902 106.197 74.636C106.197 78.7815 102.824 82.1542 98.6784 82.1542C94.5329 82.1542 91.1602 78.7815 91.1602 74.636C91.1602 70.4902 94.5329 67.1175 98.6784 67.1175Z" fill="black"/>
<path d="M80.0328 28.785C81.0685 28.785 81.9078 27.9455 81.9078 26.91C81.9078 25.8745 81.0685 25.035 80.0328 25.035H47.9678C46.932 25.035 46.0928 25.8745 46.0928 26.91C46.0928 27.9455 46.932 28.785 47.9678 28.785H80.0328Z" fill="black"/>
<path d="M73.8909 65.8017C73.8909 64.7659 73.0517 63.9267 72.0159 63.9267H55.9834C54.9476 63.9267 54.1084 64.7659 54.1084 65.8017C54.1084 66.8374 54.9476 67.6767 55.9834 67.6767H72.0159C73.0517 67.6767 73.8909 66.8374 73.8909 65.8017Z" fill="black"/>
<path d="M30.0601 34.6735C30.0601 35.709 30.8993 36.5485 31.9351 36.5485H96.0648C97.1005 36.5485 97.9398 35.709 97.9398 34.6735C97.9398 33.638 97.1005 32.7985 96.0648 32.7985H31.9351C30.8996 32.7985 30.0601 33.638 30.0601 34.6735Z" fill="black"/>
<path d="M31.9351 44.3118H96.0648C97.1005 44.3118 97.9398 43.4725 97.9398 42.4368C97.9398 41.4013 97.1005 40.5618 96.0648 40.5618H31.9351C30.8993 40.5618 30.0601 41.4013 30.0601 42.4368C30.0601 43.4723 30.8996 44.3118 31.9351 44.3118Z" fill="black"/>
<path d="M31.9351 52.075H96.0648C97.1005 52.075 97.9398 51.2358 97.9398 50.2C97.9398 49.1643 97.1005 48.325 96.0648 48.325H31.9351C30.8993 48.325 30.0601 49.1643 30.0601 50.2C30.0601 51.2358 30.8996 52.075 31.9351 52.075Z" fill="black"/>
<path d="M0 9.80971V77.7894C0 83.1709 4.37848 87.5494 9.75996 87.5494H85.1154C85.2439 87.6054 85.3732 87.6571 85.5024 87.7061V112.387C85.5024 113.725 86.2407 114.937 87.4294 115.551C87.9467 115.819 88.5074 115.951 89.0654 115.951C89.7894 115.951 90.5086 115.729 91.1246 115.291L95.0446 112.509H95.0449L98.6784 109.931L106.232 115.291C107.323 116.066 108.74 116.165 109.928 115.551C111.116 114.937 111.854 113.725 111.854 112.387V87.7064C111.984 87.6574 112.113 87.6054 112.242 87.5494H118.24C123.622 87.5494 128 83.1709 128 77.7894V48.1746C128 47.1388 127.161 46.2996 126.125 46.2996C125.089 46.2996 124.25 47.1388 124.25 48.1746V77.7894C124.25 81.1034 121.554 83.7994 118.24 83.7994H115.12C115.308 82.3697 115.024 80.7919 115.272 80.0274C115.634 78.9114 117.989 77.1869 117.989 74.6362C117.989 72.9622 116.992 71.6762 116.192 70.6432C115.386 69.6027 115.279 69.3812 115.215 68.993C115.722 68.8855 116.24 68.8295 116.765 68.8295C118.957 68.8452 120.5 67.1357 120.5 65.184V22.4152C120.5 20.3694 118.831 18.7474 116.834 18.7694C112.555 18.7847 109.251 15.3552 109.281 11.2167C109.298 9.19171 107.658 7.54996 105.635 7.54996H22.3654C20.4574 7.54996 18.7117 9.03746 18.7197 11.2845C18.7202 15.3707 15.4359 18.7847 11.1667 18.7694C9.15771 18.7479 7.49997 20.3789 7.49997 22.4152V65.184C7.49997 67.1125 9.01821 68.8447 11.236 68.8295C15.3014 68.83 18.7349 72.1165 18.7194 76.3822C18.7017 78.4077 20.3417 80.0492 22.3654 80.0492H59.625C60.6608 80.0492 61.5 79.2099 61.5 78.1742C61.5 77.1384 60.6608 76.2992 59.625 76.2992H22.4697C22.4617 70.1162 17.4332 65.0877 11.25 65.0795V22.5194C17.4479 22.5114 22.4617 17.4997 22.4697 11.2997H105.53C105.534 14.2957 106.702 17.1114 108.821 19.2297C110.939 21.3477 113.754 22.5157 116.75 22.5194V65.0795C116.187 65.0802 115.63 65.1225 115.079 65.2057C114.605 62.495 112.579 61.7408 110.561 61.1478C108.847 60.6443 108.834 60.6203 107.858 59.1865C107.127 58.1125 106.217 56.776 104.647 56.2663C103.128 55.7743 101.634 56.3033 100.434 56.7295C98.7104 57.34 98.6461 57.34 96.9231 56.7295C95.9524 56.385 94.7896 55.973 93.5774 56.0885H31.9351C30.8994 56.0885 30.0601 56.9278 30.0601 57.9635C30.0601 58.9993 30.8994 59.8385 31.9351 59.8385H89.0429C88.8264 60.1325 88.6154 60.3853 88.4249 60.524C87.2867 61.3525 83.6304 61.2512 82.5129 64.3097C81.8487 66.1272 82.4067 68.255 82.0852 69.245C81.6524 70.5795 78.3162 72.8352 79.6997 76.2994H68.375C67.3392 76.2994 66.5 77.1387 66.5 78.1744C66.5 79.2102 67.3392 80.0494 68.375 80.0494H82.0907C82.3287 80.8279 82.0492 82.3747 82.2369 83.7997H9.75996C6.44597 83.7997 3.74999 81.1037 3.74999 77.7897V9.80971C3.74999 6.49572 6.44597 3.79973 9.75996 3.79973H118.24C121.554 3.79973 124.25 6.49572 124.25 9.80971V39.4246C124.25 40.4601 125.089 41.2996 126.125 41.2996C127.161 41.2996 128 40.4601 128 39.4246V9.80971C128 4.42798 123.622 0.0497437 118.24 0.0497437H9.75996C4.37848 0.0497437 0 4.42798 0 9.80971H0ZM92.0846 110.012L89.2524 112.022V89.7266C89.9369 90.7099 90.7311 92.0409 92.0846 92.7416V110.012ZM101.523 107.35L100.74 106.795C100.663 106.74 100.584 106.689 100.504 106.641C99.9429 106.306 99.3104 106.138 98.6784 106.138C97.9559 106.138 97.2336 106.357 96.6174 106.795L95.8346 107.35V92.9044C99.5966 91.8071 97.6129 91.7689 101.523 92.9044V107.35ZM108.104 112.022L105.273 110.012V92.7416C106.625 92.0411 107.418 90.7126 108.104 89.7266V112.022ZM84.1294 72.9402C85.7149 70.894 86.0019 70.0925 85.9294 67.375C85.8777 65.4317 85.9167 65.3985 86.9204 65.039C89.7069 64.0412 90.5039 64.373 92.5984 61.2967C93.0036 60.702 93.5064 59.9643 93.8561 59.838C94.2664 59.838 94.2584 59.7625 95.6696 60.2633C98.2319 61.1725 99.1379 61.1677 101.687 60.2633C102.317 60.0395 103.182 59.7325 103.488 59.8328C103.838 59.9463 104.348 60.695 104.758 61.2967C106.257 63.4977 106.945 63.9932 109.504 64.7452C111.525 65.339 111.483 65.2855 111.427 67.375C111.356 70.0922 111.638 70.8895 113.227 72.9399C114.546 74.6417 114.547 74.6292 113.227 76.3314C111.416 78.6674 111.387 79.3682 111.436 82.2987C111.47 84.3507 111.331 83.8409 108.437 84.8607C106.567 85.5169 105.881 86.3247 104.758 87.9742C103.533 89.7736 103.601 89.6849 101.685 89.0064C98.1229 87.7459 97.6209 88.4684 94.7524 89.3131C93.6109 89.6459 93.7381 89.5519 92.1889 87.3839C89.7631 83.9897 87.2062 84.9074 86.1222 83.8207C85.8599 83.5434 85.9152 82.4042 85.9289 81.8962C85.9862 79.7324 85.8679 78.7422 84.6889 77.0757C82.9254 74.6129 82.5642 74.9589 84.1294 72.9402Z" fill="black"/>
</svg>
